<?xml version="1.0" standalone="no"?><svg xmlns:xlink="http://www.w3.org/1999/xlink" xmlns="http://www.w3.org/2000/svg" viewBox="0 0 1000 500" preserveAspectRatio="xMaxYMax slice"><g transform="scale(0.4830917874396135)"><rect x="0" y="0" width="2070" height="1035" fill="#0a0a0a"/><rect x="144.9" y="41.400000000000006" width="20.69999999999999" height="20.69999999999999" fill="#0a0a0a"/><g transform="translate(155.25,41.4) scale(0.5175) rotate(0)"><path d="M10 5L5 0L0 5L5 10L0 15L5 20L10 15L15 20L20 15L15 10L20 5L15 0L10 5Z" fill="#0f1011"/></g><g transform="translate(144.9,51.75) scale(0.5175) rotate(0)"><path d="M10 5L5 0L0 5L5 10L0 15L5 20L10 15L15 20L20 15L15 10L20 5L15 0L10 5Z" fill="#1e1e1e"/></g><g transform="translate(155.25,51.75) scale(0.5175) rotate(0)"><path d="M10 5L5 0L0 5L5 10L0 15L5 20L10 15L15 20L20 15L15 10L20 5L15 0L10 5Z" fill="#1f1f1f"/></g><g transform="translate(248.4,41.4) scale(1.035) rotate(0)"><path d="M10 5L5 0L0 5L5 10L0 15L5 20L10 15L15 20L20 15L15 10L20 5L15 0L10 5Z" fill="#0b0b0c"/></g><g transform="translate(662.4,41.4) scale(1.035) rotate(0)"><path d="M10 5L5 0L0 5L5 10L0 15L5 20L10 15L15 20L20 15L15 10L20 5L15 0L10 5Z" fill="#141414"/></g><g transform="translate(869.4,41.4) scale(1.035) rotate(0)"><path d="M10 5L5 0L0 5L5 10L0 15L5 20L10 15L15 20L20 15L15 10L20 5L15 0L10 5Z" fill="#0f0f0f"/></g><rect x="972.9" y="41.400000000000006" width="20.69999999999999" height="20.69999999999999" fill="#0a0a0a"/><g transform="translate(983.25,41.4) scale(0.5175) rotate(0)"><path d="M10 5L5 0L0 5L5 10L0 15L5 20L10 15L15 20L20 15L15 10L20 5L15 0L10 5Z" fill="#101113"/></g><g transform="translate(1283.4,41.4) scale(1.035) rotate(0)"><path d="M10 5L5 0L0 5L5 10L0 15L5 20L10 15L15 20L20 15L15 10L20 5L15 0L10 5Z" fill="#1c1c1c"/></g><g transform="translate(351.9,144.9) scale(1.035) rotate(0)"><path d="M10 5L5 0L0 5L5 10L0 15L5 20L10 15L15 20L20 15L15 10L20 5L15 0L10 5Z" fill="#0d0e0e"/></g><rect x="1179.9" y="144.9" width="20.69999999999999" height="20.69999999999999" fill="#0a0a0a"/><g transform="translate(1179.9,155.25) scale(0.5175) rotate(0)"><path d="M10 5L5 0L0 5L5 10L0 15L5 20L10 15L15 20L20 15L15 10L20 5L15 0L10 5Z" fill="#191919"/></g><g transform="translate(1593.9,144.9) scale(1.035) rotate(0)"><path d="M10 5L5 0L0 5L5 10L0 15L5 20L10 15L15 20L20 15L15 10L20 5L15 0L10 5Z" fill="#1e2227"/></g><rect x="2007.9" y="144.9" width="20.69999999999999" height="20.69999999999999" fill="#0a0a0a"/><g transform="translate(455.4,248.4) scale(1.035) rotate(0)"><path d="M10 5L5 0L0 5L5 10L0 15L5 20L10 15L15 20L20 15L15 10L20 5L15 0L10 5Z" fill="#0e0e0f"/></g><g transform="translate(558.9,248.4) scale(1.035) rotate(0)"><path d="M10 5L5 0L0 5L5 10L0 15L5 20L10 15L15 20L20 15L15 10L20 5L15 0L10 5Z" fill="#16181b"/></g><g transform="translate(1593.9,248.4) scale(1.035) rotate(0)"><path d="M10 5L5 0L0 5L5 10L0 15L5 20L10 15L15 20L20 15L15 10L20 5L15 0L10 5Z" fill="#131416"/></g><rect x="1904.4" y="248.4" width="20.69999999999999" height="20.69999999999999" fill="#0a0a0a"/><g transform="translate(1914.75,248.4) scale(0.5175) rotate(0)"><path d="M10 5L5 0L0 5L5 10L0 15L5 20L10 15L15 20L20 15L15 10L20 5L15 0L10 5Z" fill="#1d1d1d"/></g><g transform="translate(1904.4,258.75) scale(0.5175) rotate(0)"><path d="M10 5L5 0L0 5L5 10L0 15L5 20L10 15L15 20L20 15L15 10L20 5L15 0L10 5Z" fill="#0a0a0a"/></g><rect x="2007.9" y="248.4" width="20.69999999999999" height="20.69999999999999" fill="#0a0a0a"/><g transform="translate(2018.25,248.4) scale(0.5175) rotate(0)"><path d="M10 5L5 0L0 5L5 10L0 15L5 20L10 15L15 20L20 15L15 10L20 5L15 0L10 5Z" fill="#1c1f23"/></g><g transform="translate(2018.25,258.75) scale(0.5175) rotate(0)"><path d="M10 5L5 0L0 5L5 10L0 15L5 20L10 15L15 20L20 15L15 10L20 5L15 0L10 5Z" fill="#15171a"/></g><rect x="41.400000000000006" y="351.9" width="20.69999999999999" height="20.69999999999999" fill="#0a0a0a"/><g transform="translate(41.4,351.9) scale(0.5175) rotate(0)"><path d="M10 5L5 0L0 5L5 10L0 15L5 20L10 15L15 20L20 15L15 10L20 5L15 0L10 5Z" fill="#0d0d0e"/></g><g transform="translate(51.75,351.9) scale(0.5175) rotate(0)"><path d="M10 5L5 0L0 5L5 10L0 15L5 20L10 15L15 20L20 15L15 10L20 5L15 0L10 5Z" fill="#1e1e1e"/></g><g transform="translate(351.9,351.9) scale(1.035) rotate(0)"><path d="M10 5L5 0L0 5L5 10L0 15L5 20L10 15L15 20L20 15L15 10L20 5L15 0L10 5Z" fill="#111111"/></g><rect x="455.4" y="351.9" width="20.69999999999999" height="20.69999999999999" fill="#0a0a0a"/><g transform="translate(465.75,351.9) scale(0.5175) rotate(0)"><path d="M10 5L5 0L0 5L5 10L0 15L5 20L10 15L15 20L20 15L15 10L20 5L15 0L10 5Z" fill="#1b1b1b"/></g><g transform="translate(455.4,362.25) scale(0.5175) rotate(0)"><path d="M10 5L5 0L0 5L5 10L0 15L5 20L10 15L15 20L20 15L15 10L20 5L15 0L10 5Z" fill="#131313"/></g><g transform="translate(765.9,351.9) scale(1.035) rotate(0)"><path d="M10 5L5 0L0 5L5 10L0 15L5 20L10 15L15 20L20 15L15 10L20 5L15 0L10 5Z" fill="#0d0e0f"/></g><rect x="1283.4" y="351.9" width="20.69999999999999" height="20.69999999999999" fill="#0a0a0a"/><g transform="translate(1283.4,351.9) scale(0.5175) rotate(0)"><path d="M10 5L5 0L0 5L5 10L0 15L5 20L10 15L15 20L20 15L15 10L20 5L15 0L10 5Z" fill="#0d0d0e"/></g><g transform="translate(1293.75,351.9) scale(0.5175) rotate(0)"><path d="M10 5L5 0L0 5L5 10L0 15L5 20L10 15L15 20L20 15L15 10L20 5L15 0L10 5Z" fill="#131313"/></g><g transform="translate(1386.9,351.9) scale(1.035) rotate(0)"><path d="M10 5L5 0L0 5L5 10L0 15L5 20L10 15L15 20L20 15L15 10L20 5L15 0L10 5Z" fill="#181a1e"/></g><rect x="1593.9" y="351.9" width="20.69999999999999" height="20.69999999999999" fill="#0a0a0a"/><g transform="translate(1593.9,351.9) scale(0.5175) rotate(0)"><path d="M10 5L5 0L0 5L5 10L0 15L5 20L10 15L15 20L20 15L15 10L20 5L15 0L10 5Z" fill="#161616"/></g><g transform="translate(1593.9,362.25) scale(0.5175) rotate(0)"><path d="M10 5L5 0L0 5L5 10L0 15L5 20L10 15L15 20L20 15L15 10L20 5L15 0L10 5Z" fill="#121315"/></g><g transform="translate(1604.25,362.25) scale(0.5175) rotate(0)"><path d="M10 5L5 0L0 5L5 10L0 15L5 20L10 15L15 20L20 15L15 10L20 5L15 0L10 5Z" fill="#0a0a0a"/></g><rect x="1800.9" y="351.9" width="20.69999999999999" height="20.69999999999999" fill="#0a0a0a"/><g transform="translate(1811.25,351.9) scale(0.5175) rotate(0)"><path d="M10 5L5 0L0 5L5 10L0 15L5 20L10 15L15 20L20 15L15 10L20 5L15 0L10 5Z" fill="#131416"/></g><g transform="translate(1811.25,362.25) scale(0.5175) rotate(0)"><path d="M10 5L5 0L0 5L5 10L0 15L5 20L10 15L15 20L20 15L15 10L20 5L15 0L10 5Z" fill="#141414"/></g><rect x="144.9" y="455.4" width="20.69999999999999" height="20.69999999999999" fill="#0a0a0a"/><g transform="translate(144.9,455.4) scale(0.5175) rotate(0)"><path d="M10 5L5 0L0 5L5 10L0 15L5 20L10 15L15 20L20 15L15 10L20 5L15 0L10 5Z" fill="#111214"/></g><g transform="translate(155.25,455.4) scale(0.5175) rotate(0)"><path d="M10 5L5 0L0 5L5 10L0 15L5 20L10 15L15 20L20 15L15 10L20 5L15 0L10 5Z" fill="#0c0c0c"/></g><g transform="translate(144.9,465.75) scale(0.5175) rotate(0)"><path d="M10 5L5 0L0 5L5 10L0 15L5 20L10 15L15 20L20 15L15 10L20 5L15 0L10 5Z" fill="#0b0b0b"/></g><rect x="248.4" y="455.4" width="20.69999999999999" height="20.69999999999999" fill="#0a0a0a"/><g transform="translate(248.4,455.4) scale(0.5175) rotate(0)"><path d="M10 5L5 0L0 5L5 10L0 15L5 20L10 15L15 20L20 15L15 10L20 5L15 0L10 5Z" fill="#0c0c0c"/></g><g transform="translate(258.75,465.75) scale(0.5175) rotate(0)"><path d="M10 5L5 0L0 5L5 10L0 15L5 20L10 15L15 20L20 15L15 10L20 5L15 0L10 5Z" fill="#191919"/></g><g transform="translate(1386.9,455.4) scale(1.035) rotate(0)"><path d="M10 5L5 0L0 5L5 10L0 15L5 20L10 15L15 20L20 15L15 10L20 5L15 0L10 5Z" fill="#0a0b0b"/></g><g transform="translate(1800.9,455.4) scale(1.035) rotate(0)"><path d="M10 5L5 0L0 5L5 10L0 15L5 20L10 15L15 20L20 15L15 10L20 5L15 0L10 5Z" fill="#151719"/></g><rect x="41.400000000000006" y="558.9" width="20.69999999999999" height="20.69999999999999" fill="#0a0a0a"/><g transform="translate(41.4,569.25) scale(0.5175) rotate(0)"><path d="M10 5L5 0L0 5L5 10L0 15L5 20L10 15L15 20L20 15L15 10L20 5L15 0L10 5Z" fill="#171717"/></g><g transform="translate(51.75,569.25) scale(0.5175) rotate(0)"><path d="M10 5L5 0L0 5L5 10L0 15L5 20L10 15L15 20L20 15L15 10L20 5L15 0L10 5Z" fill="#131313"/></g><g transform="translate(248.4,558.9) scale(1.035) rotate(0)"><path d="M10 5L5 0L0 5L5 10L0 15L5 20L10 15L15 20L20 15L15 10L20 5L15 0L10 5Z" fill="#17191c"/></g><g transform="translate(558.9,558.9) scale(1.035) rotate(0)"><path d="M10 5L5 0L0 5L5 10L0 15L5 20L10 15L15 20L20 15L15 10L20 5L15 0L10 5Z" fill="#111213"/></g><g transform="translate(869.4,558.9) scale(1.035) rotate(0)"><path d="M10 5L5 0L0 5L5 10L0 15L5 20L10 15L15 20L20 15L15 10L20 5L15 0L10 5Z" fill="#181818"/></g><g transform="translate(2007.9,558.9) scale(1.035) rotate(0)"><path d="M10 5L5 0L0 5L5 10L0 15L5 20L10 15L15 20L20 15L15 10L20 5L15 0L10 5Z" fill="#0e0f10"/></g><g transform="translate(248.4,662.4) scale(1.035) rotate(0)"><path d="M10 5L5 0L0 5L5 10L0 15L5 20L10 15L15 20L20 15L15 10L20 5L15 0L10 5Z" fill="#141619"/></g><g transform="translate(558.9,662.4) scale(1.035) rotate(0)"><path d="M10 5L5 0L0 5L5 10L0 15L5 20L10 15L15 20L20 15L15 10L20 5L15 0L10 5Z" fill="#0b0b0c"/></g><rect x="1076.4" y="662.4" width="20.69999999999999" height="20.69999999999999" fill="#0a0a0a"/><rect x="1386.9" y="662.4" width="20.69999999999999" height="20.69999999999999" fill="#0a0a0a"/><g transform="translate(1386.9,672.75) scale(0.5175) rotate(0)"><path d="M10 5L5 0L0 5L5 10L0 15L5 20L10 15L15 20L20 15L15 10L20 5L15 0L10 5Z" fill="#0d0e0f"/></g><rect x="1697.4" y="662.4" width="20.69999999999999" height="20.69999999999999" fill="#0a0a0a"/><g transform="translate(1697.4,672.75) scale(0.5175) rotate(0)"><path d="M10 5L5 0L0 5L5 10L0 15L5 20L10 15L15 20L20 15L15 10L20 5L15 0L10 5Z" fill="#0d0d0e"/></g><g transform="translate(1800.9,662.4) scale(1.035) rotate(0)"><path d="M10 5L5 0L0 5L5 10L0 15L5 20L10 15L15 20L20 15L15 10L20 5L15 0L10 5Z" fill="#0f0f0f"/></g><rect x="351.9" y="765.9" width="20.69999999999999" height="20.69999999999999" fill="#0a0a0a"/><g transform="translate(765.9,765.9) scale(1.035) rotate(0)"><path d="M10 5L5 0L0 5L5 10L0 15L5 20L10 15L15 20L20 15L15 10L20 5L15 0L10 5Z" fill="#1c1c1c"/></g><rect x="972.9" y="765.9" width="20.69999999999999" height="20.69999999999999" fill="#0a0a0a"/><rect x="1593.9" y="765.9" width="20.69999999999999" height="20.69999999999999" fill="#0a0a0a"/><g transform="translate(1593.9,776.25) scale(0.5175) rotate(0)"><path d="M10 5L5 0L0 5L5 10L0 15L5 20L10 15L15 20L20 15L15 10L20 5L15 0L10 5Z" fill="#141414"/></g><rect x="1800.9" y="765.9" width="20.69999999999999" height="20.69999999999999" fill="#0a0a0a"/><g transform="translate(1800.9,765.9) scale(0.5175) rotate(0)"><path d="M10 5L5 0L0 5L5 10L0 15L5 20L10 15L15 20L20 15L15 10L20 5L15 0L10 5Z" fill="#101010"/></g><rect x="558.9" y="869.4" width="20.69999999999999" height="20.69999999999999" fill="#0a0a0a"/><g transform="translate(558.9,869.4) scale(0.5175) rotate(0)"><path d="M10 5L5 0L0 5L5 10L0 15L5 20L10 15L15 20L20 15L15 10L20 5L15 0L10 5Z" fill="#0b0b0b"/></g><g transform="translate(569.25,869.4) scale(0.5175) rotate(0)"><path d="M10 5L5 0L0 5L5 10L0 15L5 20L10 15L15 20L20 15L15 10L20 5L15 0L10 5Z" fill="#0c0c0c"/></g><rect x="662.4" y="869.4" width="20.69999999999999" height="20.69999999999999" fill="#0a0a0a"/><rect x="765.9" y="869.4" width="20.69999999999999" height="20.69999999999999" fill="#0a0a0a"/><g transform="translate(776.25,879.75) scale(0.5175) rotate(0)"><path d="M10 5L5 0L0 5L5 10L0 15L5 20L10 15L15 20L20 15L15 10L20 5L15 0L10 5Z" fill="#151515"/></g><rect x="972.9" y="869.4" width="20.69999999999999" height="20.69999999999999" fill="#0a0a0a"/><g transform="translate(972.9,869.4) scale(0.5175) rotate(0)"><path d="M10 5L5 0L0 5L5 10L0 15L5 20L10 15L15 20L20 15L15 10L20 5L15 0L10 5Z" fill="#121212"/></g><rect x="1179.9" y="869.4" width="20.69999999999999" height="20.69999999999999" fill="#0a0a0a"/><g transform="translate(1179.9,879.75) scale(0.5175) rotate(0)"><path d="M10 5L5 0L0 5L5 10L0 15L5 20L10 15L15 20L20 15L15 10L20 5L15 0L10 5Z" fill="#131416"/></g><rect x="1800.9" y="869.4" width="20.69999999999999" height="20.69999999999999" fill="#0a0a0a"/><g transform="translate(1800.9,869.4) scale(0.5175) rotate(0)"><path d="M10 5L5 0L0 5L5 10L0 15L5 20L10 15L15 20L20 15L15 10L20 5L15 0L10 5Z" fill="#1d2024"/></g><g transform="translate(1811.25,869.4) scale(0.5175) rotate(0)"><path d="M10 5L5 0L0 5L5 10L0 15L5 20L10 15L15 20L20 15L15 10L20 5L15 0L10 5Z" fill="#0e0f0f"/></g><g transform="translate(1800.9,879.75) scale(0.5175) rotate(0)"><path d="M10 5L5 0L0 5L5 10L0 15L5 20L10 15L15 20L20 15L15 10L20 5L15 0L10 5Z" fill="#191c1f"/></g><g transform="translate(1811.25,879.75) scale(0.5175) rotate(0)"><path d="M10 5L5 0L0 5L5 10L0 15L5 20L10 15L15 20L20 15L15 10L20 5L15 0L10 5Z" fill="#1a1d21"/></g><rect x="41.400000000000006" y="972.9" width="20.69999999999999" height="20.69999999999999" fill="#0a0a0a"/><g transform="translate(41.4,983.25) scale(0.5175) rotate(0)"><path d="M10 5L5 0L0 5L5 10L0 15L5 20L10 15L15 20L20 15L15 10L20 5L15 0L10 5Z" fill="#111314"/></g><g transform="translate(144.9,972.9) scale(1.035) rotate(0)"><path d="M10 5L5 0L0 5L5 10L0 15L5 20L10 15L15 20L20 15L15 10L20 5L15 0L10 5Z" fill="#141618"/></g><rect x="351.9" y="972.9" width="20.69999999999999" height="20.69999999999999" fill="#0a0a0a"/><g transform="translate(362.25,972.9) scale(0.5175) rotate(0)"><path d="M10 5L5 0L0 5L5 10L0 15L5 20L10 15L15 20L20 15L15 10L20 5L15 0L10 5Z" fill="#202328"/></g><rect x="558.9" y="972.9" width="20.69999999999999" height="20.69999999999999" fill="#0a0a0a"/><rect x="869.4" y="972.9" width="20.69999999999999" height="20.69999999999999" fill="#0a0a0a"/><g transform="translate(879.75,972.9) scale(0.5175) rotate(0)"><path d="M10 5L5 0L0 5L5 10L0 15L5 20L10 15L15 20L20 15L15 10L20 5L15 0L10 5Z" fill="#181a1d"/></g><g transform="translate(1179.9,972.9) scale(1.035) rotate(0)"><path d="M10 5L5 0L0 5L5 10L0 15L5 20L10 15L15 20L20 15L15 10L20 5L15 0L10 5Z" fill="#141618"/></g><g transform="translate(1283.4,972.9) scale(1.035) rotate(0)"><path d="M10 5L5 0L0 5L5 10L0 15L5 20L10 15L15 20L20 15L15 10L20 5L15 0L10 5Z" fill="#101010"/></g><rect x="1490.4" y="972.9" width="20.69999999999999" height="20.69999999999999" fill="#0a0a0a"/><g transform="translate(1490.4,972.9) scale(0.5175) rotate(0)"><path d="M10 5L5 0L0 5L5 10L0 15L5 20L10 15L15 20L20 15L15 10L20 5L15 0L10 5Z" fill="#1a1a1a"/></g><g transform="translate(1500.75,972.9) scale(0.5175) rotate(0)"><path d="M10 5L5 0L0 5L5 10L0 15L5 20L10 15L15 20L20 15L15 10L20 5L15 0L10 5Z" fill="#0f0f0f"/></g><g transform="translate(1500.75,983.25) scale(0.5175) rotate(0)"><path d="M10 5L5 0L0 5L5 10L0 15L5 20L10 15L15 20L20 15L15 10L20 5L15 0L10 5Z" fill="#0f1012"/></g><g transform="translate(1593.9,972.9) scale(1.035) rotate(0)"><path d="M10 5L5 0L0 5L5 10L0 15L5 20L10 15L15 20L20 15L15 10L20 5L15 0L10 5Z" fill="#121212"/></g><rect x="1904.4" y="972.9" width="20.69999999999999" height="20.69999999999999" fill="#0a0a0a"/><g transform="translate(1914.75,972.9) scale(0.5175) rotate(0)"><path d="M10 5L5 0L0 5L5 10L0 15L5 20L10 15L15 20L20 15L15 10L20 5L15 0L10 5Z" fill="#141518"/></g><g transform="translate(1904.4,983.25) scale(0.5175) rotate(0)"><path d="M10 5L5 0L0 5L5 10L0 15L5 20L10 15L15 20L20 15L15 10L20 5L15 0L10 5Z" fill="#1e2227"/></g><g transform="translate(1914.75,983.25) scale(0.5175) rotate(0)"><path d="M10 5L5 0L0 5L5 10L0 15L5 20L10 15L15 20L20 15L15 10L20 5L15 0L10 5Z" fill="#1d1d1d"/></g></g></svg>