<svg aria-label="Anthropic logo" fill="none" height="12.25" viewBox="0 0 330 38" xmlns="http://www.w3.org/2000/svg" class="geist-hide-on-light" data-testid="geist-logo"><g clip-path="url(#clip0_1636_156647)"><path d="M67.1773 25.5708L51.1552 0.561157H42.4414V36.5301H49.7498V11.2394L65.7719 36.2491H74.4857V0.561157H67.1773V25.5708Z" fill="white"></path><path d="M80.6709 7.58635H92.7578V36.5301H100.347V7.58635H112.434V0.561157H80.6709V7.58635Z" fill="white"></path><path d="M143.073 14.8925H126.208V0.561157H118.618V36.5301H126.208V21.9177H143.073V36.5301H150.662V0.561157H143.073V14.8925Z" fill="white"></path><path d="M168.089 7.58635H177.646C181.301 7.58635 183.549 8.99139 183.549 11.5205C183.549 14.0495 181.582 15.4546 177.646 15.4546H168.089V7.58635ZM190.858 11.5205C190.858 4.77627 185.798 0.561157 177.646 0.561157H160.219V36.5301H167.808V22.4798H176.241L183.83 36.5301H192.263L183.83 21.3557C188.328 19.6697 190.858 16.2976 190.858 11.5205Z" fill="white"></path><path d="M214.47 29.7868C208.568 29.7868 204.632 25.5717 204.632 18.5465C204.632 11.5213 208.286 7.02519 214.47 7.02519C220.373 7.02519 224.027 11.2403 224.027 18.5465C224.027 25.5717 220.373 29.7868 214.47 29.7868ZM214.47 0C204.07 0 196.762 7.58721 196.762 18.5465C196.762 29.2248 204.07 37.093 214.47 37.093C224.871 37.093 231.898 29.5058 231.898 18.5465C231.898 7.58721 224.59 0 214.47 0Z" fill="white"></path><path d="M256.352 16.5786H246.795V7.58635H256.352C260.006 7.58635 262.255 8.99139 262.255 12.0825C261.974 14.8925 260.006 16.5786 256.352 16.5786ZM256.633 0.561157H239.206V36.5301H246.795V23.3228H256.633C264.785 23.3228 269.844 19.1077 269.844 11.8015C269.844 4.49526 264.785 0.561157 256.633 0.561157Z" fill="white"></path><path d="M321.565 24.4479C320.159 27.82 317.629 29.7871 313.975 29.7871C308.072 29.7871 304.137 25.5719 304.137 18.5468C304.137 11.5216 307.791 7.02544 313.975 7.02544C317.629 7.02544 320.159 8.99249 321.565 12.3646H329.716C327.749 4.77738 321.846 -0.280762 313.975 -0.280762C303.575 -0.280762 296.267 7.30645 296.267 18.2657C296.267 28.944 303.575 36.8123 313.975 36.8123C321.846 36.8123 327.749 31.7541 329.716 24.1669H321.565V24.4479Z" fill="white"></path><path d="M272.656 0.561157L286.992 36.2491H294.862L280.527 0.561157H272.656Z" fill="white"></path><path d="M13.4918 22.1987L18.2704 9.5534L23.0489 22.1987H13.4918ZM14.3351 0.561157L-0.000488281 36.5301H7.87004L10.6809 28.9429H25.5787L28.3896 36.5301H36.2601L22.4867 0.561157H14.3351Z" fill="white"></path></g><defs><clipPath id="clip0_1636_156647"><rect fill="white" height="37.093" width="330"></rect></clipPath></defs></svg>