<?xml version="1.0" encoding="UTF-8"?>
<svg width="400" height="80" version="1.1" xmlns="http://www.w3.org/2000/svg">
 <defs>
  <linearGradient id="d" x1="5.8248" x2="10.351" y1="18.547" y2="17.929" gradientTransform="matrix(4.7565,0,0,2.8737,9.654,10.25)" gradientUnits="userSpaceOnUse">
   <stop stop-color="#A3CD39" offset=".1226"/>
   <stop stop-color="#86C339" offset=".2846"/>
   <stop stop-color="#21A038" offset=".8693"/>
  </linearGradient>
  <linearGradient id="e" x1="2.2789" x2="6.2815" y1="2.8981" y2="1.9766" gradientTransform="matrix(4.7565,0,0,2.8737,9.654,10.25)" gradientUnits="userSpaceOnUse">
   <stop stop-color="#0FA8E0" offset=".0592"/>
   <stop stop-color="#0099F9" offset=".5385"/>
   <stop stop-color="#0291EB" offset=".9234"/>
  </linearGradient>
  <linearGradient id="f" x1="2.8609" x2="1.9219" y1="10.437" y2="5.9444" gradientTransform="matrix(2.8737,0,0,4.7565,9.654,10.25)" gradientUnits="userSpaceOnUse">
   <stop stop-color="#F2E913" offset=".1444"/>
   <stop stop-color="#E7E518" offset=".3037"/>
   <stop stop-color="#CADB26" offset=".5823"/>
   <stop stop-color="#A3CD39" offset=".891"/>
  </linearGradient>
  <linearGradient id="a" x1="1.8315" x2="2.9828" y1="6.695" y2="2.1176" gradientTransform="matrix(2.9905,0,0,4.5708,9.654,10.25)" gradientUnits="userSpaceOnUse">
   <stop stop-color="#A3CD39" offset=".0698"/>
   <stop stop-color="#81C55F" offset=".2599"/>
   <stop stop-color="#0FA8E0" offset=".9216"/>
  </linearGradient>
  <linearGradient id="b" x1="2.0994" x2="6.483" y1="16.889" y2="17.961" gradientTransform="matrix(4.5708,0,0,2.9905,9.654,10.25)" gradientUnits="userSpaceOnUse">
   <stop stop-color="#F2E913" offset=".1324"/>
   <stop stop-color="#EBE716" offset=".2977"/>
   <stop stop-color="#D9E01F" offset=".5306"/>
   <stop stop-color="#BBD62D" offset=".8023"/>
   <stop stop-color="#A3CD39" offset=".9829"/>
  </linearGradient>
  <linearGradient id="c" x1="5.8242" x2="9.626" y1="1.6952" y2="2.3792" gradientTransform="matrix(4.8418,0,0,2.8231,9.654,10.25)" gradientUnits="userSpaceOnUse">
   <stop stop-color="#0291EB" offset=".0566"/>
   <stop stop-color="#0C8ACB" offset=".79"/>
  </linearGradient>
 </defs>
 <path d="m100.59 21.795c-10.616 0-14.367 5.6556-14.367 10.906 0 7.6162 6.5775 9.1736 12.463 10.559 4.0966 0.98086 7.6152 1.8456 7.6152 4.7305 0 1.5002-0.86567 3.9824-6.8086 3.9824-4.0389-0.0577-7.9619-1.3288-11.309-3.6367l-2.5957 5.8867c3.1157 2.4233 8.539 3.9805 13.848 3.9805 8.7701 0 14.482-4.2704 14.482-10.848-0.0577-7.443-6.6945-8.9997-12.521-10.385-4.0966-0.9809-7.6152-1.7888-7.6152-4.6738 0-3.8081 4.6729-4.2129 6.75-4.2129 2.2502-0.11535 4.4435 0.34708 6.4629 1.3281l5.6543-4.1543c-3.635-2.1925-7.7888-3.4052-12.059-3.4629zm92.486 0.57422v35.254h7.6152v-9.9824h7.5586l6.752 9.9824 8.1348 0.056641-7.7305-11.482c4.5582-1.9618 7.2109-5.9413 7.2109-11.191 0-7.7893-5.7698-12.637-15.002-12.637h-14.539zm163.11 0v35.254h7.6172v-14.195h4.7324l11.654 14.195h9.8086l-15.578-18.234 13.615-17.02h-8.7109l-11.311 15.115h-4.2109v-15.115h-7.6172zm-196.86 0.054687v35.254h26.656v-5.8867h-19.041v-8.998h16.271v-5.8867h-16.271v-8.5957h11.078l7.9629-5.8867h-26.656zm128.6 0.001953-15.176 35.254h7.7324l3.0586-7.0957h16.154l2.8848 7.0957h8.0215l-14.887-35.254h-7.7891zm27.52 0v35.254h7.3281v-23.078l17.482 23.078h7.2129v-35.254h-7.2715v23.137l-17.539-23.137h-7.2129zm-194.49 0.052735v35.254h17.656c8.7701 0 13.615-3.4035 13.615-9.5195 0.0577-4.2697-2.2484-7.3859-6.1719-8.7129h-0.00196l-0.3457-0.11523 0.3457-0.17383c2.8272-1.5002 4.6153-4.5004 4.5-7.6738 0-5.7121-4.8464-9.0586-12.924-9.0586h-16.674zm117.75 0.005859v35.254h17.656c8.7701 0 13.617-3.4035 13.617-9.5195 0-4.1543-2.2503-7.3292-6.1738-8.6562l-0.34765-0.17383 0.3457-0.17188c2.8272-1.5001 4.6155-4.4427 4.5-7.6738 0-5.7121-4.8464-9.0586-12.924-9.0586h-16.674zm-110.14 5.8223h8.0781c5.1351 0 6.1738 2.3663 6.1738 4.3281 0 2.8272-2.1349 4.3262-6.1738 4.3262h-8.0781v-8.6543zm125.83 0.003906c5.0774 0 6.1738 2.3663 6.1738 4.3281 0 2.8272-2.1349 4.3281-6.1738 4.3281h-8.0781v-8.5977h8.0781v-0.058594zm-53.715 0.001953h6.752c4.9043 0 7.5586 2.4226 7.5586 6.75 0 4.3273-2.6542 6.75-7.5586 6.75h-6.752v-13.5zm91.049 2.1914 5.5391 14.137h-11.424l5.8848-14.137zm-163.17 12.285h9.4629c4.3274 0 6.5195 1.4998 6.5195 4.5 0 3.0003-2.1344 4.5-6.5195 4.5h-9.4629v-9zm117.75 0.003907h9.4629c4.3274 0 6.5195 1.4998 6.5195 4.5 0 3.0003-2.1344 4.502-6.5195 4.502h-9.4629v-9.002z" fill="#21a038"/>
 <path d="m62.448 22.14c1.3848 1.7886 2.5387 3.7504 3.5196 5.8275l-26.657 19.675-11.193-7.0392v-8.4239l11.136 6.9815z" fill="#21a038"/>
 <path d="m16.751 40.02c0-0.40391 0-0.75008 0.05771-1.154l-6.7507-0.34606c0 0.46159-0.05771 0.98086-0.05771 1.4424 0 8.0778 3.2888 15.405 8.597 20.714l4.7889-4.789c-4.0966-4.0389-6.6353-9.6356-6.6353-15.867z" fill="url(#f)"/>
 <path d="m39.253 17.52c0.40388 0 0.75008 0 1.154 0.0577l0.3462-6.7507c-0.46158 0-0.98087-0.0577-1.4425-0.0577-8.0777 0-15.405 3.2888-20.714 8.597l4.7889 4.7889c4.0389-4.0966 9.6933-6.6353 15.867-6.6353z" fill="url(#e)"/>
 <path d="m39.253 62.53c-0.40389 0-0.75008 0-1.154-0.0577l-0.3462 6.7507c0.46158 0 0.98087 0.0577 1.4425 0.0577 8.0777 0 15.405-3.2888 20.714-8.597l-4.7889-4.789c-4.0389 4.1543-9.6356 6.6353-15.867 6.6353z" fill="url(#d)"/>
 <path d="m51.947 21.45 5.7121-4.212c-5.0197-4.0388-11.424-6.5199-18.406-6.5199v6.7507c4.7312 0.0577 9.1163 1.5002 12.694 3.9812z" fill="url(#c)"/>
 <path d="m68.563 40.02c0-1.7886-0.1731-3.5196-0.46159-5.2505l-6.2891 4.6736v0.57697c0 6.6353-2.8849 12.578-7.4431 16.675l4.5582 5.0198c5.8852-5.3082 9.6356-13.097 9.6356-21.695z" fill="#21a038"/>
 <path d="m39.253 62.53c-6.6353 0-12.578-2.8849-16.675-7.4431l-5.0197 4.5582c5.3659 5.9429 13.097 9.6356 21.695 9.6356z" fill="url(#b)"/>
 <path d="m24.194 23.35-4.5582-5.0198c-5.9429 5.3659-9.6356 13.097-9.6356 21.694h6.7507c0-6.5776 2.8849-12.578 7.4431-16.675z" fill="url(#a)"/>
</svg>
