<svg aria-label="Meta logo" fill="none" height="18.75" viewBox="0 0 280 57" xmlns="http://www.w3.org/2000/svg" class="geist-hide-on-dark" data-testid="geist-logo"><g clip-path="url(#clip0_513_2017258)"><path d="M102.767 1.78394H113.38L131.425 34.426L149.469 1.78394H159.852V55.4209H151.194V14.3122L135.371 42.7781H127.248L111.426 14.3122V55.4209H102.767V1.78394Z" fill="#1C2B33"></path><path d="M187.781 56.3788C183.771 56.3788 180.246 55.4912 177.207 53.7161C174.167 51.941 171.798 49.4826 170.1 46.341C168.401 43.1993 167.552 39.598 167.552 35.537C167.552 31.425 168.382 27.7854 170.042 24.618C171.702 21.4513 174.008 18.9737 176.958 17.1852C179.908 15.3978 183.298 14.5039 187.13 14.5034C190.935 14.5034 194.211 15.4037 196.957 17.2043C199.702 19.0054 201.815 21.5276 203.297 24.7712C204.778 28.0151 205.519 31.8208 205.519 36.1883V38.5633H176.134C176.67 41.8332 177.992 44.4065 180.099 46.2833C182.206 48.1607 184.869 49.0993 188.087 49.0991C190.667 49.0991 192.889 48.716 194.754 47.9498C196.618 47.1836 198.367 46.0215 200.002 44.4636L204.6 50.0953C200.027 54.2846 194.421 56.3791 187.781 56.3788ZM194.102 24.5603C192.289 22.7088 189.913 21.7829 186.976 21.7825C184.115 21.7825 181.721 22.7277 179.793 24.618C177.864 26.5081 176.644 29.0495 176.134 32.2421H197.206C196.95 28.9727 195.916 26.4121 194.102 24.5603Z" fill="#1C2B33"></path><path d="M216.018 22.5495H208.049V15.4616H216.018V3.73828H224.37V15.4616H236.476V22.5495H224.37V40.5177C224.37 43.5058 224.881 45.6385 225.902 46.9157C226.923 48.1932 228.673 48.8317 231.151 48.8312C232.249 48.8312 233.181 48.7866 233.948 48.6972C234.714 48.6082 235.557 48.4868 236.476 48.3332V55.3442C235.427 55.6477 234.358 55.8782 233.277 56.0341C232.041 56.2161 230.792 56.3057 229.542 56.3022C220.526 56.3022 216.018 51.3728 216.018 41.5139V22.5495Z" fill="#1C2B33"></path><path d="M280 55.421H271.801V49.8275C270.345 51.9221 268.494 53.5375 266.246 54.6738C263.998 55.81 261.444 56.3784 258.584 56.3791C255.059 56.3791 251.937 55.4786 249.216 53.6777C246.496 51.8771 244.357 49.3997 242.799 46.2454C241.241 43.0909 240.462 39.4832 240.462 35.4223C240.462 31.3357 241.254 27.7215 242.837 24.5796C244.421 21.4383 246.611 18.9736 249.408 17.1855C252.205 15.3981 255.416 14.5041 259.043 14.5037C261.776 14.5037 264.228 15.0337 266.399 16.0938C268.541 17.1298 270.396 18.6755 271.801 20.5953V15.4617H280V55.421ZM271.648 29.4455C270.754 27.1723 269.342 25.3779 267.415 24.0624C265.486 22.7472 263.257 22.0896 260.729 22.0896C257.153 22.0896 254.305 23.29 252.186 25.6907C250.065 28.0917 249.005 31.3355 249.006 35.4222C249.006 39.5347 250.027 42.7913 252.071 45.1919C254.114 47.5929 256.885 48.7933 260.384 48.7931C262.964 48.7931 265.262 48.129 267.28 46.8007C269.298 45.4732 270.754 43.6854 271.648 41.4371L271.648 29.4455Z" fill="#1C2B33"></path><path d="M9.17383 37.2033C9.17383 40.4464 9.88566 42.9362 10.816 44.4426C12.0359 46.4156 13.8553 47.2514 15.7101 47.2514C18.1025 47.2514 20.2911 46.6578 24.5088 40.8244C27.8878 36.1489 31.8692 29.586 34.5481 25.4717L39.0848 18.5013C42.2363 13.6603 45.884 8.27889 50.0662 4.63122C53.4806 1.65402 57.1637 0 60.8704 0C67.0937 0 73.0215 3.60632 77.5582 10.37C82.5232 17.7776 84.9333 27.108 84.9333 36.7367C84.9333 42.4607 83.805 46.6666 81.8852 49.9894C80.0304 53.2029 76.4152 56.4135 70.3337 56.4135V47.2514C75.5409 47.2514 76.8405 42.4666 76.8405 36.9907C76.8405 29.1873 75.0211 20.5274 71.0131 14.3396C68.1688 9.95062 64.4827 7.26875 60.4274 7.26875C56.0413 7.26875 52.5118 10.5768 48.5451 16.4751C46.4363 19.6088 44.2713 23.4278 41.8405 27.7371L39.1645 32.4776C33.789 42.0088 32.4274 44.1797 29.7397 47.7624C25.0287 54.0358 21.0059 56.4135 15.7101 56.4135C9.42783 56.4135 5.45526 53.6932 2.99492 49.5936C0.986488 46.2531 0 41.87 0 36.8755L9.17383 37.2033Z" fill="#0081FB"></path><path d="M7 11.0859C11.2059 4.60282 17.2755 0.0690918 24.2371 0.0690918C28.2688 0.0690918 32.2768 1.26235 36.462 4.67966C41.0401 8.41594 45.9194 14.5683 52.0068 24.7079L54.1894 28.3467C59.4586 37.1248 62.4565 41.6408 64.211 43.7703C66.4675 46.5053 68.0477 47.3205 70.1004 47.3205C75.3076 47.3205 76.6072 42.5357 76.6072 37.0598L84.7 36.8058C84.7 42.5298 83.5717 46.7357 81.6519 50.0585C79.7971 53.272 76.1819 56.4825 70.1004 56.4825C66.3198 56.4825 62.9705 55.6614 59.2667 52.1674C56.4194 49.4855 53.0907 44.7214 50.5299 40.4387L42.9127 27.7146C39.0907 21.329 35.5848 16.5678 33.5557 14.4117C31.373 12.0931 28.5671 9.29312 24.0894 9.29312C20.4654 9.29312 17.3878 11.8362 14.8122 15.726L7 11.0859Z" fill="url(#paint0_linear_513_2017259)"></path><path d="M24.3228 9.22403C20.6987 9.22403 17.6211 11.7671 15.0456 15.657C11.4038 21.1536 9.17383 29.3409 9.17383 37.2033C9.17383 40.4464 9.88566 42.9362 10.816 44.4426L2.99492 49.5936C0.986488 46.2531 0 41.87 0 36.8755C0 27.7932 2.49282 18.327 7.23333 11.0168C11.4392 4.53372 17.5089 0 24.4704 0L24.3228 9.22403Z" fill="url(#paint1_linear_513_2017260)"></path></g><defs><linearGradient gradientUnits="userSpaceOnUse" id="paint0_linear_513_2017259" x1="17.7835" x2="76.2646" y1="34.626" y2="37.5796"><stop stop-color="#0064E1"></stop><stop offset="0.4" stop-color="#0064E1"></stop><stop offset="0.83" stop-color="#0073EE"></stop><stop offset="1" stop-color="#0082FB"></stop></linearGradient><linearGradient gradientUnits="userSpaceOnUse" id="paint1_linear_513_2017260" x1="13.2911" x2="13.2911" y1="41.0548" y2="19.4937"><stop stop-color="#0082FB"></stop><stop offset="1" stop-color="#0064E0"></stop></linearGradient><clipPath id="clip0_513_2017258"><rect fill="white" height="56.4134" width="280"></rect></clipPath></defs></svg>