<svg aria-label="Stability logo" fill="none" height="19.5" viewBox="0 0 300 59" xmlns="http://www.w3.org/2000/svg" class="geist-hide-on-light" data-testid="geist-logo"><path d="M94.0185 0.0126953C96.6734 0.0126953 99.3032 0.0126953 101.908 0.0126953C101.908 6.499 101.908 12.9287 101.908 19.3584C101.971 19.415 102.034 19.4779 102.096 19.5345C102.172 19.3773 102.222 19.2011 102.323 19.0627C106.79 12.8721 115.497 12.0605 121.077 17.2823C124.066 20.0756 125.588 23.561 126.205 27.537C126.966 32.4757 125.953 37.0306 123.122 41.1199C120.517 44.8884 116.812 46.996 112.244 47.0903C108.004 47.1784 104.563 45.2973 102.027 41.856C101.864 41.6295 101.694 41.4093 101.379 40.9815C101.153 42.6487 100.907 44.102 100.769 45.5678C100.712 46.1844 100.53 46.3731 99.9197 46.3605C98.1393 46.3228 96.3525 46.3291 94.5721 46.348C94.1003 46.3543 93.9556 46.2284 93.9556 45.7251C93.987 31.3621 93.9933 16.9991 94.0059 2.63616C94.0185 1.78684 94.0185 0.924931 94.0185 0.0126953ZM118.41 30.5254C118.341 30.538 118.479 30.5128 118.41 30.5254C118.353 28.9463 118.202 27.644 117.705 26.3291C116.428 22.9507 113.88 21.0193 110.256 20.8997C106.89 20.7865 104.342 22.4159 102.87 25.4358C101.209 28.8393 101.228 32.3436 103.009 35.7094C105.557 40.5222 111.98 41.4156 115.83 37.5591C117.762 35.6213 118.498 33.2118 118.41 30.5254Z" fill="white"></path><path d="M78.245 19.6364C78.4085 18.2208 78.6099 16.8053 78.7105 15.3897C78.7546 14.7921 78.9559 14.5027 79.5284 14.4964C81.5416 14.4901 83.5485 14.4901 85.6058 14.4901C85.6058 25.0657 85.6058 35.6099 85.6058 46.2485C85.1339 46.2736 84.6747 46.324 84.2154 46.324C82.6677 46.3365 81.1264 46.324 79.5787 46.3365C78.9748 46.3428 78.742 46.1604 78.6979 45.4872C78.6099 44.0906 78.3645 42.7002 78.1821 41.3098C78.1129 41.2972 78.0374 41.2846 77.9682 41.2784C77.7983 41.4985 77.6284 41.7187 77.4649 41.9389C75.2944 44.877 72.3878 46.6071 68.764 46.9908C63.4101 47.557 59.4278 45.1097 56.345 40.9701C54.3696 38.3152 53.4573 35.245 53.2371 31.9673C52.9163 27.1985 53.9481 22.7946 57.0182 19.0387C59.7234 15.7295 63.2151 13.7918 67.5561 13.8484C71.5825 13.8987 74.8917 15.5533 77.3453 18.8059C77.5592 19.089 77.7794 19.3784 77.9933 19.6615C78.0814 19.6552 78.1632 19.6489 78.245 19.6364ZM61.1075 30.7782C60.9691 32.609 61.5542 34.4838 62.6489 36.2013C65.9392 41.3664 73.5076 41.2092 76.452 35.849C78.44 32.2315 78.3834 28.4756 76.389 24.8833C73.9669 20.5171 68.1475 19.5546 64.335 22.7757C61.9317 24.8078 61.0509 27.4816 61.1075 30.7782Z" fill="white"></path><path d="M275.811 19.6163C275.968 18.3014 276.157 16.9865 276.27 15.6716C276.358 14.6525 276.472 14.4826 277.485 14.4826C279.366 14.4763 281.24 14.4826 283.159 14.4826C283.159 25.1149 283.159 35.6842 283.159 46.3605C281.851 46.3605 280.574 46.3668 279.303 46.3605C278.541 46.3542 277.787 46.3165 277.025 46.3039C276.459 46.2976 276.302 46.0208 276.264 45.4671C276.163 44.0642 275.975 42.6675 275.629 41.1891C275.446 41.4093 275.251 41.6232 275.088 41.8559C272.634 45.2595 269.224 47.0337 265.11 47.1092C261.203 47.1847 257.887 45.5301 255.245 42.6486C252.684 39.8616 251.281 36.5335 250.866 32.7776C250.306 27.7446 251.363 23.1205 254.528 19.1256C257.321 15.5961 261.02 13.671 265.581 13.866C269.451 14.0296 272.609 15.7408 274.955 18.8739C275.157 19.1444 275.358 19.4087 275.559 19.6792C275.635 19.6477 275.723 19.6289 275.811 19.6163ZM258.661 30.7078C258.516 32.5952 259.095 34.4951 260.221 36.2315C263.537 41.3715 271.049 41.1828 274.024 35.8415C275.773 32.7021 275.855 29.374 274.553 26.0711C272.382 20.5663 265.625 19.1193 261.379 23.2275C259.328 25.2029 258.592 27.7132 258.661 30.7078Z" fill="white"></path><path d="M218.215 58.4722C215.654 58.4722 213.068 58.4722 210.388 58.4722C211.068 56.8302 211.716 55.2448 212.376 53.6531C213.465 51.0171 214.559 48.3873 215.629 45.745C215.723 45.5122 215.717 45.1725 215.623 44.9334C211.753 34.968 207.865 25.0026 203.984 15.0373C203.927 14.8926 203.896 14.7416 203.852 14.6157C203.908 14.5528 203.946 14.4899 203.977 14.4899C206.544 14.4836 209.111 14.4836 211.678 14.471C212.383 14.4647 212.433 15.0373 212.584 15.4776C213.49 18.1263 214.371 20.7749 215.258 23.4298C216.635 27.5443 218.013 31.6588 219.391 35.7733C219.479 36.0438 219.605 36.3018 219.781 36.7422C219.995 36.3332 220.177 36.0627 220.278 35.767C222.593 28.9347 224.902 22.0961 227.186 15.2512C227.387 14.6535 227.651 14.4333 228.287 14.4396C230.665 14.4773 233.049 14.4522 235.522 14.4522C229.74 29.1549 223.996 43.7632 218.215 58.4722Z" fill="white"></path><path d="M0.0890396 36.4776C2.05821 38.2077 4.14062 39.3905 6.50615 39.9882C8.82763 40.5733 11.1931 40.9067 13.5713 40.2524C14.1438 40.0951 14.7226 39.8749 15.2259 39.5667C17.0755 38.4216 17.151 35.9366 15.2825 34.8356C14.062 34.1184 12.6653 33.6717 11.319 33.1873C9.33093 32.4701 7.2611 31.9416 5.32338 31.1238C3.0774 30.1738 1.18372 28.7331 0.397312 26.2543C-0.628166 22.9954 0.284069 18.774 3.68765 16.3455C5.86443 14.7916 8.33691 14.0618 10.9541 13.8794C14.4583 13.634 17.843 14.2191 21.0453 15.6975C22.2721 16.2638 22.2406 16.2763 22.2155 17.5849C22.184 19.3905 22.2092 21.1961 22.2092 23.0835C22.033 22.9891 21.8883 22.9073 21.7499 22.8256C18.3526 20.8438 14.7414 19.7932 10.7968 20.46C10.0104 20.5922 9.22398 21.02 8.53823 21.4604C7.19189 22.3348 7.25481 25.0212 8.89683 25.6881C10.6836 26.4116 12.5143 27.0156 14.3388 27.651C15.8424 28.1732 17.4026 28.5695 18.8622 29.1986C21.8883 30.5009 23.8638 32.6966 24.1343 36.119C24.4237 39.812 23.1592 42.8004 20.0072 44.8765C18.0569 46.1599 15.855 46.7198 13.5713 46.9778C9.14848 47.4748 4.98365 46.6569 1.07048 44.5179C0.34069 44.1152 0.0450008 43.6434 0.0701659 42.7878C0.133079 40.7431 0.0890396 38.6985 0.0890396 36.4776Z" fill="white"></path><path d="M27.7832 21.0891C27.7832 18.8683 27.7832 16.7041 27.7832 14.5147C29.0226 14.5147 30.2179 14.4644 31.4133 14.5336C32.2248 14.5776 32.4262 14.3071 32.401 13.5144C32.3381 11.6018 32.3884 9.68928 32.357 7.77673C32.3507 7.26713 32.4891 7.08469 33.0175 7.09098C35.1377 7.12243 37.2642 7.13502 39.3843 7.11614C39.938 7.10985 40.0386 7.33005 40.0386 7.80818C40.0197 9.79623 40.0512 11.7906 40.0197 13.7786C40.0072 14.3763 40.1896 14.5273 40.781 14.5147C43.373 14.4769 45.965 14.5021 48.6262 14.5021C48.6262 16.7041 48.6262 18.8997 48.6262 21.1142C46.0027 21.1142 43.4359 21.1394 40.8754 21.1017C40.1833 21.0891 40.0009 21.2841 40.0072 21.9824C40.0323 25.8327 39.9883 29.683 39.982 33.5395C39.982 34.1686 39.9946 34.8041 40.1078 35.4143C40.6615 38.3901 42.6684 39.9881 45.9965 40.0573C47.0597 40.0762 48.1229 39.9315 49.2931 39.856C49.2931 40.0636 49.2931 40.3089 49.2931 40.5606C49.2868 42.341 49.2742 44.1215 49.2868 45.9019C49.2931 46.336 49.1987 46.5939 48.7206 46.6568C45.6819 47.0469 42.6558 47.1664 39.7178 46.0906C35.5844 44.5807 33.1748 41.5861 32.6904 37.2702C32.357 34.3133 32.4388 31.3124 32.3821 28.3303C32.3381 26.1536 32.3507 23.9831 32.3821 21.8063C32.3884 21.196 32.1745 21.0576 31.602 21.0765C30.3563 21.1142 29.1044 21.0891 27.7832 21.0891Z" fill="white"></path><path d="M179.724 14.4768C181.322 14.4768 182.832 14.4768 184.398 14.4768C184.398 12.0043 184.398 9.6073 184.398 7.11595C185.002 7.11595 185.543 7.11595 186.084 7.11595C187.814 7.12225 189.545 7.15999 191.275 7.10966C191.897 7.09079 192.092 7.21662 192.074 7.86462C192.023 9.90928 192.042 11.9539 192.036 13.9923C192.036 14.1181 192.048 14.244 192.061 14.4453C194.961 14.4453 197.83 14.4453 200.737 14.4453C200.737 16.685 200.737 18.8492 200.737 21.1141C200.485 21.1141 200.24 21.1141 199.988 21.1141C197.578 21.1203 195.169 21.1329 192.753 21.1141C192.174 21.1078 192.004 21.2839 192.004 21.8816C192.023 25.8388 192.011 29.796 191.986 33.7532C191.954 37.7545 194.118 40.0193 198.138 40.0634C199.202 40.076 200.271 39.9376 201.372 39.8621C201.372 42.0326 201.372 44.2534 201.372 46.5245C197.685 47.0404 194.055 47.2984 190.583 45.6375C187.343 44.0835 185.524 41.4223 184.776 37.9873C184.568 37.0247 184.436 36.0244 184.43 35.0367C184.392 30.6328 184.398 26.2352 184.417 21.8313C184.417 21.265 184.228 21.1015 183.694 21.1203C182.567 21.1581 181.441 21.1707 180.315 21.1392C180.114 21.1329 179.755 20.8876 179.755 20.7429C179.711 18.673 179.724 16.6095 179.724 14.4768Z" fill="white"></path><path d="M149.721 0C152.376 0 154.931 0 157.585 0C157.585 0.415224 157.585 0.773827 157.585 1.13243C157.592 15.8603 157.592 30.5819 157.598 45.3098C157.598 46.3667 157.592 46.3604 156.522 46.3604C154.503 46.3541 152.49 46.3353 150.47 46.373C149.835 46.3856 149.684 46.2094 149.684 45.5803C149.709 31.016 149.709 16.4454 149.715 1.88109C149.721 1.28342 149.721 0.685749 149.721 0Z" fill="white"></path><path d="M299.498 46.3737C296.963 46.3737 294.503 46.38 292.043 46.3548C291.898 46.3548 291.634 46.0591 291.634 45.9018C291.628 35.8735 291.64 25.839 291.647 15.8107C291.647 15.3954 291.647 14.9865 291.647 14.5146C294.283 14.5146 296.862 14.5146 299.498 14.5146C299.498 25.0903 299.498 35.6785 299.498 46.3737Z" fill="white"></path><path d="M166.229 14.4956C168.846 14.4956 171.407 14.4956 174.106 14.4956C174.106 14.9612 174.106 15.3953 174.106 15.8294C174.106 25.6878 174.093 35.5399 174.125 45.3984C174.125 46.2099 173.898 46.3987 173.105 46.3798C170.834 46.3169 168.557 46.3609 166.235 46.3609C166.229 35.7098 166.229 25.1342 166.229 14.4956Z" fill="white"></path><path d="M133.288 46.3622C133.288 35.7362 133.288 25.1669 133.288 14.5283C135.836 14.5283 138.415 14.5283 141.076 14.5283C141.089 14.78 141.12 15.0631 141.12 15.3399C141.12 25.3996 141.108 35.4594 141.133 45.5192C141.133 46.2364 140.938 46.3936 140.252 46.3811C137.956 46.337 135.659 46.3622 133.288 46.3622Z" fill="white"></path><path d="M235.993 41.9512C235.974 39.441 237.975 37.4404 240.517 37.4278C243.191 37.4152 245.141 39.3278 245.172 41.9827C245.204 44.6061 243.191 46.6068 240.492 46.6319C238.069 46.6571 236.012 44.5181 235.993 41.9512Z" fill="white"></path><path d="M295.602 0.427351C298.005 0.288943 299.975 2.39652 300 4.87529C300.025 7.31001 298.131 9.07786 295.577 9.07786C293.067 9.07786 291.205 7.26597 291.198 4.82495C291.198 2.2707 293.029 0.439934 295.602 0.427351Z" fill="white"></path><path d="M137.195 0.434448C139.479 0.358953 141.574 2.13309 141.567 4.83205C141.561 7.18499 139.906 9.07866 137.063 9.06608C134.597 9.0535 132.722 7.15982 132.734 4.73139C132.753 2.28408 134.685 0.421865 137.195 0.434448Z" fill="white"></path><path d="M170.136 0.415527C172.634 0.415527 174.521 2.34066 174.509 4.88234C174.502 7.23527 172.52 9.10378 170.054 9.08491C167.594 9.06604 165.707 7.23527 165.707 4.86346C165.707 2.3847 167.67 0.415527 170.136 0.415527Z" fill="white"></path></svg>